<svg width="44" height="43" fill="none" xmlns="http://www.w3.org/2000/svg"><rect x="1" y="1" width="42" height="41" rx="20.5" fill="#37A6EA"/><g clip-path="url(#a)" fill="#fff"><path d="M22 34c6.617 0 12-5.383 12-12s-5.383-12-12-12-12 5.383-12 12 5.383 12 12 12Zm0-22.5c5.79 0 10.5 4.71 10.5 10.5S27.79 32.5 22 32.5 11.5 27.79 11.5 22 16.21 11.5 22 11.5Z"/><path d="m17.896 24.155 1.568-.681-.44.441a.75.75 0 0 0-.22.53v2.935c0 .672.812.998 1.28.53l1.574-1.574 3.43 1.715a.75.75 0 0 0 1.073-.537l1.957-10.761a.751.751 0 0 0-1.012-.833L14.39 20.897a.75.75 0 0 0-.13 1.331l2.934 1.872c.21.134.475.155.702.055Zm8.506-6.347-1.537 8.455-3.02-1.509a.748.748 0 0 0-.865.141l-.676.676v-.813l3.007-3.007c.583-.583-.073-1.545-.829-1.218l-4.817 2.09-1.354-.864 10.091-3.951Z"/></g><rect x="1" y="1" width="42" height="41" rx="20.5" stroke="#fff" stroke-width="2"/><defs><clipPath id="a"><path fill="#fff" transform="translate(10 10)" d="M0 0h24v24H0z"/></clipPath></defs></svg>