<svg width="44" height="43" fill="none" xmlns="http://www.w3.org/2000/svg"><rect x="1" y="1" width="42" height="41" rx="20.5" fill="#40BF4F"/><g clip-path="url(#a)"><path fill-rule="evenodd" clip-rule="evenodd" d="M29.65 13.27A11.077 11.077 0 0 0 21.764 10c-6.146 0-11.147 5.001-11.15 11.148 0 1.966.512 3.884 1.488 5.575L10.52 32.5l5.911-1.55a11.138 11.138 0 0 0 5.328 1.357h.005c6.144 0 11.146-5.002 11.149-11.15a11.08 11.08 0 0 0-3.263-7.887Zm-7.886 17.154h-.004a9.255 9.255 0 0 1-4.717-1.292l-.338-.2-3.507.92.936-3.42-.22-.351a9.245 9.245 0 0 1-1.418-4.932c.002-5.11 4.16-9.266 9.271-9.266 2.475 0 4.802.966 6.552 2.718a9.212 9.212 0 0 1 2.712 6.556c-.003 5.11-4.16 9.267-9.267 9.267Zm5.083-6.94c-.279-.14-1.649-.814-1.904-.907-.255-.093-.441-.14-.627.14-.185.278-.72.906-.882 1.092-.163.185-.325.209-.603.07-.28-.14-1.177-.434-2.24-1.383-.829-.74-1.388-1.651-1.55-1.93-.163-.28-.002-.415.122-.569.301-.374.603-.767.696-.953.093-.186.046-.348-.023-.488-.07-.14-.627-1.51-.859-2.068-.226-.543-.456-.47-.627-.479-.162-.008-.348-.01-.534-.01-.186 0-.487.07-.743.35-.255.278-.975.952-.975 2.323 0 1.372.998 2.696 1.138 2.882.139.186 1.964 3 4.759 4.207a15.94 15.94 0 0 0 1.588.587c.667.212 1.275.182 1.755.11.535-.08 1.648-.674 1.88-1.325.232-.65.232-1.208.162-1.324-.07-.117-.255-.186-.533-.326Z" fill="#fff"/></g><rect x="1" y="1" width="42" height="41" rx="20.5" stroke="#fff" stroke-width="2"/><defs><clipPath id="a"><path fill="#fff" transform="translate(10.5 10)" d="M0 0h23v23H0z"/></clipPath></defs></svg>